{"glyphs":{":":{"x_min":0,"x_max":277,"ha":277,"o":"m 39 393 b 39 337 84 292 139 292 b 194 292 238 337 238 393 b 238 448 194 491 139 491 b 84 491 39 448 39 393 z m 39 106 b 39 51 84 6 139 6 b 194 6 238 51 238 106 b 238 164 194 206 139 206 b 84 206 39 164 39 106 z"},"$":{"x_min":0,"x_max":570,"ha":570,"o":"m 225 -65 l 354 -65 l 354 0 b 451 24 535 90 544 198 b 551 351 461 401 354 427 l 354 539 b 376 535 396 522 407 503 l 527 579 b 474 659 424 689 354 698 l 354 756 l 225 756 l 225 697 b 125 675 42 606 36 495 b 34 354 127 297 225 274 l 225 177 b 199 181 179 189 152 226 l 24 138 b 73 53 143 2 225 -1 z m 194 494 b 194 514 208 535 232 548 l 232 434 b 206 443 193 465 194 493 z m 386 217 b 386 197 372 176 348 163 l 348 277 b 374 268 387 246 386 218 z"},"?":{"x_min":0,"x_max":491,"ha":491,"o":"m 123 497 b 164 573 289 555 289 483 b 289 410 208 372 123 408 l 133 180 l 283 180 l 293 297 b 412 314 465 407 465 494 b 465 722 143 816 21 584 z m 117 65 b 117 14 157 -26 208 -26 b 258 -26 298 14 298 65 b 298 118 258 155 208 155 b 157 155 117 118 117 65 z"},"<":{"x_min":0,"x_max":445,"ha":445,"o":"m 391 383 l 391 582 l 25 347 l 25 238 l 391 6 l 391 205 b 342 232 283 264 230 292 z"},"'":{"x_min":0,"x_max":257,"ha":257,"o":"m 218 708 l 48 708 l 48 418 l 203 418 z"},"=":{"x_min":0,"x_max":528,"ha":528,"o":"m 481 474 l 47 474 l 47 319 l 481 319 z m 481 271 l 47 271 l 47 115 l 481 115 z"},"a":{"x_min":0,"x_max":648,"ha":648,"o":"m 404 708 l 241 708 l -6 0 l 186 0 l 230 142 l 419 142 l 465 0 l 657 0 z m 270 301 l 322 508 l 327 508 l 376 301 z"},"L":{"x_min":0,"x_max":539,"ha":539,"o":"m 56 0 l 524 0 l 524 177 l 236 177 l 236 708 l 56 708 z"},"3":{"x_min":0,"x_max":540,"ha":540,"o":"m 16 118 b 69 29 162 -10 253 -10 b 383 -10 510 74 510 212 b 510 267 487 341 415 378 b 487 423 493 524 465 594 b 427 688 339 718 252 718 b 172 718 87 675 29 603 l 133 511 b 177 561 264 574 296 524 b 316 494 300 437 254 437 l 148 437 l 148 294 l 258 294 b 309 294 335 262 335 226 b 335 188 294 165 246 165 b 204 165 158 183 132 225 z"},";":{"x_min":0,"x_max":293,"ha":293,"o":"m 45 382 b 45 325 86 281 145 281 b 202 281 243 325 243 382 b 243 437 202 480 145 480 b 86 480 45 437 45 382 z m 255 127 l 68 127 l 7 -128 l 163 -128 z"},"J":{"x_min":0,"x_max":587,"ha":587,"o":"m 3 208 b 23 58 144 -10 266 -10 b 401 -10 536 77 536 231 l 536 708 l 198 708 l 198 546 l 359 546 l 359 231 b 359 190 317 163 273 163 b 229 163 182 186 172 243 z"},"V":{"x_min":0,"x_max":656,"ha":656,"o":"m 361 362 l 329 195 l 326 195 l 294 363 l 183 709 l -9 709 l 246 1 l 410 1 l 665 709 l 473 709 z"},"\"":{"x_min":0,"x_max":462,"ha":462,"o":"m 220 709 l 47 709 l 47 419 l 199 419 z m 425 709 l 252 709 l 252 419 l 405 419 z"},"7":{"x_min":0,"x_max":529,"ha":529,"o":"m 22 708 l 22 538 l 292 538 l 62 0 l 254 0 l 527 612 l 479 708 z"},"S":{"x_min":0,"x_max":564,"ha":564,"o":"m 22 118 b 88 33 178 -10 263 -10 b 393 -10 537 65 543 202 b 551 376 425 420 299 443 b 244 455 207 475 205 509 b 208 591 335 594 409 515 l 526 605 b 453 694 370 718 284 718 b 154 718 28 645 28 506 b 28 371 132 299 246 281 b 304 273 369 250 367 210 b 362 134 206 138 135 224 z"},"}":{"x_min":0,"x_max":344,"ha":344,"o":"m 39 708 l 39 545 l 90 545 l 90 418 b 86 369 129 319 167 301 b 126 286 87 232 90 181 l 90 55 l 39 55 l 39 -108 l 106 -108 b 233 -108 260 -49 260 46 l 260 165 b 260 193 271 218 315 218 l 315 381 b 271 381 260 406 260 433 l 260 553 b 260 647 245 708 108 708 z"},"Z":{"x_min":0,"x_max":605,"ha":605,"o":"m 36 708 l 36 542 l 320 542 l 14 66 l 47 0 l 572 0 l 572 165 l 284 163 l 589 648 l 551 708 z"},"x":{"x_min":0,"x_max":656,"ha":656,"o":"m 327 466 l 206 708 l -3 708 l 196 353 l -3 0 l 206 0 l 327 241 l 451 0 l 659 0 l 461 353 l 659 708 l 451 708 z"},")":{"x_min":0,"x_max":316,"ha":316,"o":"m 12 707 b 178 477 166 208 12 -39 l 132 -120 b 236 25 287 194 287 347 b 287 502 234 661 126 783 z"},"&":{"x_min":0,"x_max":682,"ha":682,"o":"m 522 349 l 458 294 l 399 367 b 449 402 485 449 485 530 b 485 641 393 711 293 714 b 119 719 13 531 135 403 b 68 363 29 311 29 225 b 29 5 286 -70 431 58 l 479 1 l 689 1 l 556 167 l 622 221 z m 290 573 b 312 573 329 553 329 530 b 329 504 311 486 280 465 b 261 488 243 509 243 527 b 243 553 265 573 290 573 z m 327 178 b 295 141 238 143 213 178 b 191 208 196 257 240 280 z"},"_":{"x_min":0,"x_max":593,"ha":593,"o":"m 548 34 l 44 34 l 44 -135 l 548 -135 z"},"v":{"x_min":0,"x_max":656,"ha":656,"o":"m 361 362 l 329 195 l 326 195 l 294 363 l 183 709 l -9 709 l 246 1 l 410 1 l 665 709 l 473 709 z"},"O":{"x_min":0,"x_max":665,"ha":665,"o":"m 39 233 b 39 71 186 -10 333 -10 b 480 -10 626 71 626 233 l 626 475 b 626 637 479 718 332 718 b 185 718 39 638 39 475 z m 218 475 b 218 527 274 555 330 555 b 388 555 447 530 447 475 l 447 233 b 447 182 390 156 333 156 b 276 156 218 181 218 233 z"},"(":{"x_min":0,"x_max":322,"ha":322,"o":"m 190 795 b 82 673 29 502 29 347 b 29 194 81 23 184 -122 l 311 -37 b 149 212 144 473 308 718 z"},"C":{"x_min":0,"x_max":582,"ha":582,"o":"m 417 221 b 378 123 218 147 218 232 l 218 476 b 218 564 376 584 424 496 l 570 555 b 513 681 408 718 321 718 b 179 718 39 636 39 476 l 39 232 b 39 71 179 -10 318 -10 b 407 -10 514 34 573 149 z"},"W":{"x_min":0,"x_max":915,"ha":915,"o":"m 644 367 l 624 219 l 621 219 l 598 367 l 525 616 l 389 616 l 310 368 l 293 219 l 288 219 l 270 369 l 186 708 l 0 708 l 205 0 l 371 0 l 427 197 l 454 358 l 457 358 l 482 196 l 545 0 l 711 0 l 915 708 l 730 708 z"},"A":{"x_min":0,"x_max":648,"ha":648,"o":"m 404 708 l 241 708 l -6 0 l 186 0 l 230 142 l 419 142 l 465 0 l 657 0 z m 270 301 l 322 508 l 327 508 l 376 301 z"},"f":{"x_min":0,"x_max":576,"ha":576,"o":"m 237 538 l 549 538 l 549 708 l 56 708 l 56 0 l 237 0 l 237 244 l 510 244 l 510 411 l 237 411 z"},"Q":{"x_min":0,"x_max":665,"ha":665,"o":"m 39 233 b 39 71 186 -10 333 -10 b 387 -10 441 1 488 23 l 546 -37 l 645 52 l 590 108 b 612 142 626 184 626 233 l 626 475 b 626 637 479 718 332 718 b 185 718 39 638 39 475 z m 218 475 b 218 581 447 584 447 475 l 447 253 l 398 303 l 299 217 l 357 157 b 299 132 218 168 218 233 z"},"w":{"x_min":0,"x_max":915,"ha":915,"o":"m 644 367 l 624 219 l 621 219 l 598 367 l 525 616 l 389 616 l 310 368 l 293 219 l 288 219 l 270 369 l 186 708 l 0 708 l 205 0 l 371 0 l 427 197 l 454 358 l 457 358 l 482 196 l 545 0 l 711 0 l 915 708 l 730 708 z"},"-":{"x_min":0,"x_max":404,"ha":404,"o":"m 358 375 l 46 375 l 46 205 l 358 205 z"},"E":{"x_min":0,"x_max":588,"ha":588,"o":"m 237 540 l 549 540 l 549 708 l 56 708 l 56 0 l 549 0 l 549 169 l 237 169 l 237 275 l 524 275 l 524 430 l 237 430 z"},"s":{"x_min":0,"x_max":564,"ha":564,"o":"m 22 118 b 88 33 178 -10 263 -10 b 393 -10 537 65 543 202 b 551 376 425 420 299 443 b 244 455 207 475 205 509 b 208 591 335 594 409 515 l 526 605 b 453 694 370 718 284 718 b 154 718 28 645 28 506 b 28 371 132 299 246 281 b 304 273 369 250 367 210 b 362 134 206 138 135 224 z"},">":{"x_min":0,"x_max":445,"ha":445,"o":"m 420 347 l 53 582 l 53 383 l 222 292 l 53 205 l 53 6 l 420 238 z"},"l":{"x_min":0,"x_max":539,"ha":539,"o":"m 56 0 l 524 0 l 524 177 l 236 177 l 236 708 l 56 708 z"},"8":{"x_min":0,"x_max":600,"ha":600,"o":"m 308 -10 b 483 -10 567 78 570 223 b 571 272 543 346 478 379 b 519 407 539 467 539 498 b 539 656 425 718 308 718 l 294 718 b 204 718 63 670 63 505 b 63 463 78 409 125 378 b 62 331 30 269 30 213 b 30 70 132 -10 294 -10 z m 309 572 b 402 566 410 432 300 432 b 203 432 202 570 294 572 z m 293 157 b 175 160 191 312 290 309 l 313 309 b 415 318 430 157 310 157 z"},"\\":{"x_min":0,"x_max":503,"ha":503,"o":"m 325 -58 l 484 -4 l 180 767 l 19 711 z"},"e":{"x_min":0,"x_max":588,"ha":588,"o":"m 237 540 l 549 540 l 549 708 l 56 708 l 56 0 l 549 0 l 549 169 l 237 169 l 237 275 l 524 275 l 524 430 l 237 430 z"},"b":{"x_min":0,"x_max":624,"ha":624,"o":"m 570 492 b 574 627 475 708 340 708 l 56 708 l 56 0 l 345 0 b 502 0 579 69 597 183 b 606 237 594 328 497 377 b 548 403 569 460 570 492 z m 236 431 l 236 557 l 340 557 b 430 557 427 431 340 431 z m 236 157 l 236 302 l 340 302 b 446 302 448 157 340 157 z"},"%":{"x_min":0,"x_max":740,"ha":740,"o":"m 55 7 l 184 -76 l 676 681 l 547 767 z m 325 541 b 325 654 271 718 174 718 b 88 718 26 650 26 543 b 26 426 80 364 174 364 b 261 364 325 431 325 541 z m 206 541 b 206 502 194 483 173 483 b 153 483 138 499 138 542 b 138 583 153 601 173 601 b 193 601 206 583 206 541 z m 715 171 b 715 284 661 348 564 348 b 478 348 416 280 416 173 b 416 56 470 -6 564 -6 b 651 -6 715 61 715 171 z m 596 171 b 596 132 584 113 563 113 b 543 113 528 129 528 172 b 528 213 543 231 563 231 b 583 231 596 213 596 171 z"},"m":{"x_min":0,"x_max":769,"ha":769,"o":"m 56 0 l 235 0 l 235 204 l 223 347 l 228 348 l 323 105 l 446 105 l 539 348 l 545 347 l 534 204 l 533 0 l 713 0 l 713 708 l 534 708 l 384 362 l 235 708 l 56 708 z"},"#":{"x_min":0,"x_max":647,"ha":647,"o":"m 503 315 l 512 348 l 579 348 l 623 500 l 557 500 l 605 661 l 440 661 l 393 500 l 351 500 l 398 661 l 240 661 l 193 500 l 119 500 l 74 348 l 148 348 l 139 315 l 65 315 l 22 169 l 96 169 l 46 -1 l 209 -1 l 258 169 l 300 169 l 251 -1 l 409 -1 l 459 169 l 526 169 l 569 315 z m 308 361 l 366 361 l 350 302 l 291 302 z"},",":{"x_min":0,"x_max":287,"ha":287,"o":"m 251 106 l 63 106 l -22 -149 l 151 -149 z"},"n":{"x_min":0,"x_max":676,"ha":676,"o":"m 56 0 l 235 0 l 235 283 l 212 420 l 217 421 l 279 279 l 439 0 l 620 0 l 620 708 l 442 708 l 442 387 b 443 387 461 265 462 265 l 457 264 l 397 406 l 226 708 l 56 708 z"},"h":{"x_min":0,"x_max":676,"ha":676,"o":"m 236 267 l 440 267 l 440 0 l 620 0 l 620 708 l 440 708 l 440 440 l 236 440 l 236 708 l 56 708 l 56 0 l 236 0 z"},"z":{"x_min":0,"x_max":605,"ha":605,"o":"m 36 708 l 36 542 l 320 542 l 14 66 l 47 0 l 572 0 l 572 165 l 284 163 l 589 648 l 551 708 z"},"B":{"x_min":0,"x_max":624,"ha":624,"o":"m 570 492 b 574 627 475 708 340 708 l 56 708 l 56 0 l 345 0 b 502 0 579 69 597 183 b 606 237 594 328 497 377 b 548 403 569 460 570 492 z m 236 431 l 236 557 l 340 557 b 430 557 427 431 340 431 z m 236 157 l 236 302 l 340 302 b 446 302 448 157 340 157 z"},"K":{"x_min":0,"x_max":640,"ha":640,"o":"m 236 446 l 236 708 l 56 708 l 56 0 l 236 0 l 236 245 l 242 253 l 423 0 l 650 0 l 371 366 l 651 708 l 428 708 z"},"R":{"x_min":0,"x_max":646,"ha":646,"o":"m 433 0 l 656 0 l 463 243 b 549 270 602 344 602 475 b 598 641 485 708 339 708 l 56 708 l 56 0 l 237 0 l 237 225 l 269 225 z m 237 379 l 237 541 l 342 541 b 455 541 455 379 342 379 z"},"T":{"x_min":0,"x_max":585,"ha":585,"o":"m 571 539 l 571 709 l 14 709 l 14 539 l 202 539 l 202 0 l 383 0 l 383 539 z"},"P":{"x_min":0,"x_max":618,"ha":618,"o":"m 56 0 l 235 0 l 235 207 l 340 207 b 511 207 598 332 598 458 b 598 583 512 708 339 708 l 56 708 z m 235 366 l 235 541 l 339 541 b 447 542 447 365 339 366 z"},"|":{"x_min":0,"x_max":269,"ha":269,"o":"m 219 -135 l 219 724 l 50 724 l 50 -135 z"},"t":{"x_min":0,"x_max":585,"ha":585,"o":"m 571 539 l 571 709 l 14 709 l 14 539 l 202 539 l 202 0 l 383 0 l 383 539 z"},"M":{"x_min":0,"x_max":769,"ha":769,"o":"m 56 0 l 235 0 l 235 204 l 223 347 l 228 348 l 323 105 l 446 105 l 539 348 l 545 347 l 534 204 l 533 0 l 713 0 l 713 708 l 534 708 l 384 362 l 235 708 l 56 708 z"},"g":{"x_min":0,"x_max":624,"ha":624,"o":"m 565 567 b 516 680 411 718 319 718 b 179 718 39 638 39 478 l 39 235 b 39 72 179 -10 319 -10 b 461 -10 597 72 597 235 l 597 411 l 312 411 l 312 261 l 425 261 l 425 235 b 425 125 218 124 218 235 l 218 478 b 218 571 376 593 415 498 z"},"j":{"x_min":0,"x_max":587,"ha":587,"o":"m 3 208 b 23 58 144 -10 266 -10 b 401 -10 536 77 536 231 l 536 708 l 198 708 l 198 546 l 359 546 l 359 231 b 359 190 317 163 273 163 b 229 163 182 186 172 243 z"},"i":{"x_min":0,"x_max":291,"ha":291,"o":"m 235 708 l 56 708 l 56 0 l 235 0 z"},"y":{"x_min":0,"x_max":655,"ha":655,"o":"m 417 0 l 417 279 l 665 708 l 455 708 l 327 448 l 199 708 l -9 708 l 238 279 l 238 0 z"},"@":{"x_min":0,"x_max":759,"ha":759,"o":"m 500 538 l 482 517 b 445 547 413 557 377 557 b 269 557 183 439 183 314 b 183 205 254 121 360 121 b 386 121 410 127 431 140 b 455 123 477 119 504 119 b 554 119 606 142 637 170 b 735 255 764 423 704 540 b 668 609 586 670 500 695 b 465 704 430 708 395 708 b 183 708 47 520 34 341 b 24 130 173 -9 350 -9 b 388 -9 430 -2 475 12 l 448 108 b 278 57 155 158 155 315 b 155 446 243 590 404 590 b 460 590 538 568 572 520 z m 589 495 l 598 477 b 635 412 621 274 542 239 z m 375 244 b 360 244 346 248 335 260 b 273 337 354 511 452 407 l 420 260 b 409 249 391 244 375 244 z"},".":{"x_min":0,"x_max":257,"ha":257,"o":"m 29 95 b 29 39 73 -6 128 -6 b 183 -6 228 39 228 95 b 228 150 183 194 128 194 b 73 194 29 150 29 95 z"},"p":{"x_min":0,"x_max":618,"ha":618,"o":"m 56 0 l 235 0 l 235 207 l 340 207 b 511 207 598 332 598 458 b 598 583 512 708 339 708 l 56 708 z m 235 366 l 235 541 l 339 541 b 447 542 447 365 339 366 z"},"X":{"x_min":0,"x_max":656,"ha":656,"o":"m 327 466 l 206 708 l -3 708 l 196 353 l -3 0 l 206 0 l 327 241 l 451 0 l 659 0 l 461 353 l 659 708 l 451 708 z"},"*":{"x_min":0,"x_max":477,"ha":477,"o":"m 406 649 l 302 604 l 321 710 l 157 710 l 172 603 l 70 651 l 24 493 l 134 480 l 53 396 l 187 299 l 239 400 l 293 299 l 422 398 l 341 476 l 453 490 z"},"Y":{"x_min":0,"x_max":655,"ha":655,"o":"m 417 0 l 417 279 l 665 708 l 455 708 l 327 448 l 199 708 l -9 708 l 238 279 l 238 0 z"},"c":{"x_min":0,"x_max":582,"ha":582,"o":"m 417 221 b 378 123 218 147 218 232 l 218 476 b 218 564 376 584 424 496 l 570 555 b 513 681 408 718 321 718 b 179 718 39 636 39 476 l 39 232 b 39 71 179 -10 318 -10 b 407 -10 514 34 573 149 z"},"!":{"x_min":0,"x_max":291,"ha":291,"o":"m 53 220 l 237 220 l 247 712 l 43 712 z m 47 89 b 47 34 91 -10 146 -10 b 202 -10 247 34 247 89 b 247 145 202 190 146 190 b 91 190 47 145 47 89 z"},"/":{"x_min":0,"x_max":490,"ha":490,"o":"m 471 709 l 314 764 l 19 -13 l 177 -70 z"},"[":{"x_min":0,"x_max":328,"ha":328,"o":"m 221 544 l 290 544 l 290 710 l 50 710 l 50 -100 l 290 -100 l 290 65 l 221 65 z"},"6":{"x_min":0,"x_max":584,"ha":584,"o":"m 528 587 b 485 676 398 718 305 718 b 174 718 41 637 41 495 l 41 213 b 41 66 171 -10 303 -10 b 435 -10 561 67 561 213 l 561 255 b 561 431 348 518 212 421 l 212 494 b 212 539 257 565 305 565 b 342 565 381 550 403 515 z m 390 207 b 390 126 212 127 212 207 l 212 260 b 212 334 390 335 390 260 z"},"r":{"x_min":0,"x_max":646,"ha":646,"o":"m 433 0 l 656 0 l 463 243 b 549 270 602 344 602 475 b 598 641 485 708 339 708 l 56 708 l 56 0 l 237 0 l 237 225 l 269 225 z m 237 379 l 237 541 l 342 541 b 455 541 455 379 342 379 z"},"2":{"x_min":0,"x_max":558,"ha":558,"o":"m 165 484 b 243 627 400 525 305 418 l 17 94 l 62 1 l 518 1 l 518 171 l 358 171 l 275 154 l 431 302 b 495 362 519 434 519 500 b 519 611 438 718 282 718 b 185 718 89 668 31 557 z"},"{":{"x_min":0,"x_max":351,"ha":351,"o":"m 254 547 l 313 547 l 313 710 l 231 710 b 118 710 83 649 83 555 l 83 433 b 83 406 71 381 29 381 l 29 218 b 71 218 83 193 83 165 l 83 54 b 83 -41 112 -100 223 -100 l 313 -100 l 313 63 l 254 63 l 254 181 b 254 230 229 283 182 300 b 226 317 254 376 254 418 z"},"9":{"x_min":0,"x_max":588,"ha":588,"o":"m 44 125 b 89 32 187 -10 285 -10 b 416 -10 547 72 547 217 l 547 499 b 545 646 417 718 285 718 b 153 718 27 645 27 499 l 27 457 b 27 281 240 192 376 291 l 376 218 b 376 178 332 150 283 150 b 242 150 197 166 171 209 z m 198 505 b 198 580 376 579 376 505 l 376 452 b 376 378 198 377 198 452 z"}," ":{"x_min":0,"x_max":182,"ha":182,"o":""},"I":{"x_min":0,"x_max":291,"ha":291,"o":"m 235 708 l 56 708 l 56 0 l 235 0 z"},"H":{"x_min":0,"x_max":676,"ha":676,"o":"m 236 267 l 440 267 l 440 0 l 620 0 l 620 708 l 440 708 l 440 440 l 236 440 l 236 708 l 56 708 l 56 0 l 236 0 z"},"4":{"x_min":0,"x_max":574,"ha":574,"o":"m 543 299 l 477 299 l 477 708 l 330 708 l 0 259 l 57 154 l 306 154 l 306 0 l 477 0 l 477 154 l 543 154 z m 194 297 l 321 478 l 319 297 z"},"~":{"x_min":0,"x_max":489,"ha":489,"o":"m 362 391 b 303 284 268 402 181 402 b 116 402 66 348 25 288 l 136 195 b 189 284 226 183 303 183 b 373 183 425 239 464 306 z"},"D":{"x_min":0,"x_max":636,"ha":636,"o":"m 56 708 l 56 0 l 321 0 b 463 -1 596 70 596 233 l 596 471 b 596 636 463 708 321 708 z m 236 168 l 236 541 l 327 541 b 387 541 416 512 416 466 l 416 245 b 416 199 388 168 327 168 z"},"^":{"x_min":0,"x_max":652,"ha":652,"o":"m 371 707 l 273 707 l 26 404 l 226 404 l 321 519 l 418 404 l 625 404 z"},"0":{"x_min":0,"x_max":596,"ha":596,"o":"m 298 -10 b 419 -10 554 57 554 207 l 554 500 b 554 651 419 718 298 718 b 178 718 42 651 42 500 l 42 207 b 42 57 178 -10 298 -10 z m 298 561 b 338 561 384 538 384 495 l 384 205 b 384 164 339 142 298 142 b 255 142 212 164 212 205 l 212 495 b 212 537 256 561 298 561 z"},"F":{"x_min":0,"x_max":576,"ha":576,"o":"m 237 538 l 549 538 l 549 708 l 56 708 l 56 0 l 237 0 l 237 244 l 510 244 l 510 411 l 237 411 z"},"`":{"x_min":0,"x_max":406,"ha":406,"o":"m 306 756 l 206 922 l 20 922 l 151 756 z"},"k":{"x_min":0,"x_max":640,"ha":640,"o":"m 236 446 l 236 708 l 56 708 l 56 0 l 236 0 l 236 245 l 242 253 l 423 0 l 650 0 l 371 366 l 651 708 l 428 708 z"},"u":{"x_min":0,"x_max":667,"ha":667,"o":"m 233 708 l 52 708 l 52 237 b 51 -95 616 -95 617 237 l 617 708 l 436 708 l 436 237 b 435 123 233 123 233 237 z"},"]":{"x_min":0,"x_max":328,"ha":328,"o":"m 105 63 l 38 63 l 38 -100 l 278 -100 l 278 710 l 38 710 l 38 547 l 105 547 z"},"U":{"x_min":0,"x_max":667,"ha":667,"o":"m 233 708 l 52 708 l 52 237 b 51 -95 616 -95 617 237 l 617 708 l 436 708 l 436 237 b 435 123 233 123 233 237 z"},"o":{"x_min":0,"x_max":665,"ha":665,"o":"m 39 233 b 39 71 186 -10 333 -10 b 480 -10 626 71 626 233 l 626 475 b 626 637 479 718 332 718 b 185 718 39 638 39 475 z m 218 475 b 218 527 274 555 330 555 b 388 555 447 530 447 475 l 447 233 b 447 182 390 156 333 156 b 276 156 218 181 218 233 z"},"N":{"x_min":0,"x_max":676,"ha":676,"o":"m 56 0 l 235 0 l 235 283 l 212 420 l 217 421 l 279 279 l 439 0 l 620 0 l 620 708 l 442 708 l 442 387 b 443 387 461 265 462 265 l 457 264 l 397 406 l 226 708 l 56 708 z"},"+":{"x_min":0,"x_max":566,"ha":566,"o":"m 202 406 l 27 406 l 27 236 l 202 236 l 202 65 l 371 65 l 371 236 l 539 236 l 539 406 l 371 406 l 371 576 l 202 576 z"},"G":{"x_min":0,"x_max":624,"ha":624,"o":"m 565 567 b 516 680 411 718 319 718 b 179 718 39 638 39 478 l 39 235 b 39 72 179 -10 319 -10 b 461 -10 597 72 597 235 l 597 411 l 312 411 l 312 261 l 425 261 l 425 235 b 425 125 218 124 218 235 l 218 478 b 218 571 376 593 415 498 z"},"q":{"x_min":0,"x_max":665,"ha":665,"o":"m 39 233 b 39 71 186 -10 333 -10 b 387 -10 441 1 488 23 l 546 -37 l 645 52 l 590 108 b 612 142 626 184 626 233 l 626 475 b 626 637 479 718 332 718 b 185 718 39 638 39 475 z m 218 475 b 218 581 447 584 447 475 l 447 253 l 398 303 l 299 217 l 357 157 b 299 132 218 168 218 233 z"},"d":{"x_min":0,"x_max":636,"ha":636,"o":"m 56 708 l 56 0 l 321 0 b 463 -1 596 70 596 233 l 596 471 b 596 636 463 708 321 708 z m 236 168 l 236 541 l 327 541 b 387 541 416 512 416 466 l 416 245 b 416 199 388 168 327 168 z"},"1":{"x_min":0,"x_max":374,"ha":374,"o":"m 323 0 l 323 708 l 188 708 l 0 510 l 94 428 l 162 475 l 162 0 z"},"5":{"x_min":0,"x_max":541,"ha":541,"o":"m 28 121 b 85 28 170 -10 250 -10 b 435 -10 517 122 517 253 b 517 424 367 534 195 471 l 195 551 l 472 551 l 472 708 l 52 708 l 52 295 l 134 295 b 166 338 208 354 249 354 b 303 354 346 321 342 249 b 338 166 222 139 155 221 z"}}}
